<svg width="421" height="413" viewBox="0 0 421 413" fill="none" xmlns="http://www.w3.org/2000/svg">
<path d="M263.202 337.801C222.16 353.585 174.825 357.961 134.696 339.905C94.5671 321.849 64.7441 277.771 72.0491 234.377C74.8221 217.903 82.5431 201.866 80.5711 185.272C78.3301 166.412 64.0671 151.166 58.7431 132.933C53.6611 115.532 57.2221 96.397 65.5921 80.333C73.9621 64.269 86.7991 50.95 100.647 39.281C122.54 20.833 148.155 5.65196 176.44 1.20896C204.725 -3.23404 235.925 4.48696 255.158 25.734C284.864 58.551 280.611 114.488 314.84 142.548C330.369 155.278 351.328 159.765 367.057 172.246C381.896 184.021 390.96 202.763 390.977 221.704C391.03 281.984 310.036 319.789 263.202 337.801Z" fill="#D5E3FA"/>
<path d="M217.292 411.94C255.106 411.94 285.76 404.739 285.76 395.855C285.76 386.972 255.106 379.77 217.292 379.77C179.478 379.77 148.824 386.972 148.824 395.855C148.824 404.739 179.478 411.94 217.292 411.94Z" fill="#B8C9DE" stroke="white" stroke-miterlimit="10"/>
<path d="M242.929 82.2631C241.815 74.8591 241.427 66.0991 235.059 61.4181C225.19 54.1661 210.542 59.4741 199.749 61.3251C190.102 62.9791 189.047 73.9341 187.964 81.9341C187.233 87.3361 187.486 93.6701 185.838 98.8711C184.162 104.163 180.461 108.336 179.149 113.923C176.461 125.37 179.274 138.161 186.521 147.419C194.673 157.834 207.325 163.838 220.256 165.592C227.295 166.546 233.318 166.836 240.354 168.303C247.973 169.892 255.914 170.179 263.536 168.445C274.852 165.871 285.363 158.461 290.014 147.828C294.664 137.196 292.456 123.474 283.577 116.002C276.698 110.213 267.274 108.782 258.993 105.28C249.343 101.198 245.27 94.5511 243.358 84.7891C243.198 83.9711 243.059 83.1271 242.929 82.2631Z" fill="#0E3776"/>
<path d="M283.479 260.565C287.924 257.991 287.911 250.325 287.911 250.325C285.944 239.529 283.949 228.595 280.858 218.057C278.507 210.039 275.32 203.118 273.468 194.746C270.911 183.186 268.353 171.626 265.796 160.066C264.144 152.598 264.337 147.66 257.631 143.402C250.156 138.656 239.871 137.194 231.276 138.527C242.61 150.117 243.146 168.763 246.558 183.757C248.794 193.584 251.368 203.348 254.447 212.946C257.414 222.196 262.067 230.64 265.343 239.664L271.434 256.448C271.434 256.448 271.81 257.444 272.472 258.641C273.509 260.833 279.033 263.139 283.479 260.565Z" fill="#395884"/>
<path d="M258.545 41.151L258.072 40.842C258.371 41.087 258.545 41.151 258.545 41.151Z" fill="#E9ACB8"/>
<path d="M215.483 314.874C213.312 314.62 211.134 314.352 208.96 314.161C210.763 314.319 212.162 303.515 212.077 302.195C211.85 298.669 210.17 294.994 209.466 291.445C207.613 282.099 206.106 272.69 204.399 263.317L239.011 255.833L245.614 263.867C259.498 268.608 273.337 273.488 287.138 278.463C298.14 282.429 309.122 286.457 320.021 290.699C323.894 292.206 330.505 293.51 332.894 297.174C335.459 301.109 335.085 309.376 334.802 313.742C334.465 318.937 332.799 324.217 329.201 327.979C322.635 334.844 315.82 332.619 308.058 330.699C299.086 328.48 289.389 327.851 280.251 326.41C269.814 324.763 259.381 323.094 248.954 321.381C248.954 321.381 234.014 316.677 233.975 316.664C229.955 315.398 225.86 315.754 221.731 315.485C219.659 315.349 217.573 315.118 215.483 314.874Z" fill="#254672"/>
<path d="M211.202 313.93C212.406 313.693 213.62 313.476 214.86 313.293C215.243 308.931 215.801 304.763 216.604 300.463C217.409 296.152 219.157 291.144 219.157 286.77C220.58 279.143 222.004 271.515 223.427 263.888L188.847 256.255L182.21 264.26C168.416 268.904 154.667 273.685 140.953 278.561C122.076 285.272 91.5122 289.585 93.4352 315.878C93.8062 320.954 95.9302 327.871 99.9762 331.306C103.495 334.293 106.38 332.842 110.598 332.105C120.704 330.339 130.944 329.147 141.088 327.604C153.606 325.7 166.12 323.759 178.623 321.76C178.623 321.76 193.529 317.137 193.622 317.108C197.294 315.969 201.078 316.151 204.77 315.327C206.928 314.845 209.047 314.355 211.202 313.93Z" fill="#254672"/>
<path d="M224.132 143.136L222.042 145.776C217.702 151.296 210.352 150.866 206.452 144.886L203.622 140.526C204.122 133.916 204.722 127.436 205.132 123.186C205.422 120.166 205.622 118.276 205.622 118.276L213.872 119.246L221.132 118.276C221.132 118.276 222.192 125.016 223.122 132.946C223.512 136.266 223.882 139.806 224.132 143.136Z" fill="#E4ABB7"/>
<path d="M223.122 132.946C218.592 133.036 214.012 131.636 210.372 128.936C208.272 127.386 206.502 125.406 205.132 123.186C205.422 120.166 205.622 118.276 205.622 118.276L213.872 119.246L221.132 118.276C221.132 118.276 222.192 125.016 223.122 132.946Z" fill="#DD96A9"/>
<path d="M194.222 139.139L202.329 139.012L234.251 139.139C234.251 139.139 248.31 146.866 244.89 157.507C241.471 168.148 206.229 178.598 206.229 178.598L189.409 170.427C189.409 170.427 185.989 165.867 185.419 162.257C184.849 158.647 183.709 156.557 184.849 154.086C185.989 151.616 188.102 141.953 188.102 141.953L194.222 139.139Z" fill="#395884"/>
<path d="M185.853 72.46C185.853 72.46 182.621 80.268 186.628 84.276C190.636 88.284 192.239 97.902 192.239 97.902C192.239 97.902 201.056 74.658 201.056 73.856C201.056 73.055 185.853 72.46 185.853 72.46Z" fill="#0E3776"/>
<path d="M236.87 94.0149C235.259 93.6969 233.776 94.1349 232.631 94.9989V72.6319L205.525 65.3259L189.906 68.5669L192.825 86.7639C194.705 98.3379 192.219 112.811 203.748 120.041C208.876 123.257 218.217 124.744 223.492 120.847C228.039 117.489 230.339 110.197 232.63 105.195C232.63 105.195 233.026 104.634 234.229 104.634C237.499 104.634 240.092 102.031 239.467 98.6479C239.079 96.5439 238.967 94.4279 236.87 94.0149Z" fill="#E4ABB7"/>
<path d="M234.875 96.5759C234.875 96.5759 232.63 100.317 234.127 102.562C235.624 104.807 236.372 101.065 235.624 100.317C234.876 99.5689 234.876 100.317 236.372 99.5689C237.869 98.8199 234.875 96.5759 234.875 96.5759Z" fill="#D78CA0"/>
<path d="M232.844 91.441C235.481 91.766 237.975 91.592 239.819 90.578C244.915 87.777 244.34 78.633 243.027 73.658C241.479 67.797 237.187 61.976 231.531 59.439C201.898 45.763 180.622 73.072 185.18 79.911C189.66 86.633 204.968 70.034 207.818 66.636C212.918 73.548 211.918 81.433 220.299 86.921C223.058 88.728 228.175 90.865 232.844 91.441Z" fill="#0E3776"/>
<path d="M231.746 84.682C235.712 87.576 239.305 89.986 240.633 91.403C241.349 84.39 244.814 73.461 239.82 67.271C237.797 64.764 235.305 63.267 232.447 61.948C225.923 58.937 218.042 55.277 210.633 55.787C196.529 56.76 191.551 71.174 190.841 83.003C202.051 83.471 213.232 76.707 218.023 66.561C215.44 72.034 224.258 79.219 231.746 84.682Z" fill="#0E3776"/>
<path d="M272.591 259.313C273.151 259.93 273.801 260.556 274.506 261.046C276.61 262.511 342.249 293.78 342.249 293.78L345.885 286.291C345.885 286.291 293.312 251.357 290.43 249.513C288.119 248.034 286.776 247.715 286.144 247.662L285.698 247.673C285.698 247.673 279.612 244.702 275.594 248.567C271.577 252.432 271.072 256.965 272.181 258.847C272.269 258.998 272.417 259.154 272.591 259.313Z" fill="#E9ACB8"/>
<path d="M331.382 275.43C331.382 275.43 324.415 279.419 322.271 288.01C322.271 288.01 275.024 266.326 271.565 256.352C268.106 246.379 275.642 238.717 275.642 238.717H285.891L331.382 275.43Z" fill="#395884"/>
<path d="M346.697 292.439C346.697 292.439 353.374 288.762 356.502 287.707C359.63 286.652 376.548 280.709 378.895 280.155C381.242 279.601 382.276 276.798 382.276 276.798C382.276 276.798 389.885 274.944 389.547 273.238C389.209 271.532 386.575 271.469 384.987 271.926C383.399 272.382 381.006 273.268 381.006 273.268C381.006 273.268 378.75 272.683 377.944 272.875C376.919 273.12 369.067 274.428 368.833 275.16C369.367 273.491 368.517 271.695 367.462 270.296C366.73 269.326 365.737 268.37 364.522 268.379C363.023 268.39 361.978 269.817 361.189 271.092C361.613 272.226 362.038 273.36 362.462 274.493C362.543 274.71 362.625 274.928 362.678 275.155C362.948 276.31 362.359 277.611 361.311 278.169C360.496 278.604 349.739 277.631 349.802 280.032C350.803 276.981 353.444 274.524 356.56 273.744C357.814 273.43 359.169 273.356 360.261 272.665C360.893 272.265 362.901 268.045 362.008 268.205C360.118 268.545 358.228 268.885 356.338 269.225C350.436 270.287 345.713 272.084 342.492 277.32C340.165 281.102 338.854 284.341 339.951 288.715C340.107 289.336 341.34 294.247 342.858 293.735C342.887 293.724 346.697 292.439 346.697 292.439Z" fill="#E9ACB8"/>
<path d="M149.294 260.565C144.848 257.991 144.862 250.325 144.862 250.325C146.83 239.529 148.825 228.595 151.915 218.057C154.266 210.039 157.453 203.118 159.305 194.746C161.862 183.186 164.42 171.626 166.977 160.066C168.629 152.598 168.436 147.659 175.144 143.401C182.573 138.685 189.178 138.343 197.692 138.81C193.692 145.322 190.513 155.275 190.12 163.037C189.861 168.212 180.76 215.563 167.431 239.665L161.339 256.449C161.339 256.449 160.963 257.445 160.302 258.642C159.264 260.833 153.74 263.139 149.294 260.565Z" fill="#395884"/>
<path d="M161.154 257.402C160.625 258.046 160.007 258.703 159.327 259.228C157.298 260.796 93.2911 295.281 93.2911 295.281L89.2891 287.982C89.2891 287.982 140.065 250.485 142.852 248.5C145.087 246.908 146.413 246.522 147.041 246.439L147.487 246.428C147.487 246.428 153.418 243.159 157.622 246.82C161.826 250.481 162.554 254.984 161.54 256.918C161.46 257.071 161.319 257.234 161.154 257.402Z" fill="#E9ACB8"/>
<path d="M88.7835 294.162C88.7835 294.162 81.9315 290.821 78.7555 289.922C75.5795 289.024 58.3875 283.926 56.0155 283.489C53.6445 283.052 52.4725 280.304 52.4725 280.304C52.4725 280.304 44.7805 278.83 45.0345 277.108C45.2875 275.386 47.9145 275.194 49.5235 275.571C51.1325 275.948 53.5665 276.714 53.5665 276.714C53.5665 276.714 55.7905 276.018 56.6055 276.17C57.6415 276.364 65.5485 277.281 65.8185 278C65.2025 276.359 65.9625 274.523 66.9465 273.074C67.6295 272.069 68.5745 271.065 69.7875 271.013C71.2855 270.949 72.3995 272.323 73.2515 273.557C72.8835 274.71 72.5155 275.864 72.1485 277.017C72.0785 277.238 72.0075 277.46 71.9655 277.689C71.7525 278.856 72.4065 280.126 73.4795 280.632C74.3155 281.026 85.0105 279.521 85.0665 281.922C83.9145 278.924 81.1555 276.601 78.0055 275.977C76.7375 275.726 75.3805 275.719 74.2555 275.083C73.6045 274.715 71.3895 270.599 72.2895 270.715C74.1945 270.961 76.0985 271.207 78.0025 271.452C83.9505 272.219 88.7565 273.781 92.2335 278.85C94.7455 282.512 96.2155 285.682 95.3365 290.105C95.2115 290.732 94.2235 295.699 92.6815 295.263C92.6525 295.256 88.7835 294.162 88.7835 294.162Z" fill="#E9ACB8"/>
<path d="M167.662 264.164C167.433 265.7 167.37 267.246 167.575 268.797C168.248 273.901 171.608 276.417 176.224 277.34C180.695 278.235 185.237 279.884 189.906 279.979C200.652 280.198 220.549 282.016 231.276 281.352C238.5 280.905 257.674 279.646 257.652 269.187C257.638 262.814 253.883 255.039 252.881 248.57C251.878 242.093 251.323 235.546 251.224 228.993C251.01 214.889 254.891 201.734 255.774 187.798C256.255 180.199 255.303 172.515 253.015 165.254C251.284 159.763 250.087 153.546 247.042 148.632C245.36 145.918 239.562 141.937 238.875 147.907C238.294 152.955 242.226 156.768 237.67 161.561C230.323 169.288 214.235 170.302 214.235 170.302C214.235 170.302 198.148 169.288 190.8 161.561C186.092 156.61 193.341 141.596 190.354 140.35C185.92 138.506 181.908 150.932 180.946 153.631C177.71 162.708 174.789 170.241 175.586 180.161C176.112 186.705 177.627 193.087 178.94 199.502C180.122 205.275 179.008 211.003 178.377 216.875C176.951 230.13 174.119 243.234 169.937 255.892C169.043 258.596 168.078 261.364 167.662 264.164Z" fill="#395884"/>
<path d="M218.122 317.609C213.245 318.715 209.67 319.172 203.752 317.937C197.466 316.59 190.102 321.061 184.947 324.083C181.709 325.981 178.529 328.241 175.036 329.582C171.312 331.013 167.352 332.006 163.547 333.206C162.624 333.497 161.683 333.797 160.904 334.371C160.125 334.945 159.523 335.851 159.572 336.817C159.645 338.277 161.189 339.309 162.649 339.352C164.11 339.396 165.485 338.721 166.79 338.063C165.932 338.322 165.052 338.592 164.352 339.151C163.652 339.71 163.166 340.633 163.384 341.502C163.68 342.683 165.152 343.236 166.338 342.961C167.524 342.686 168.476 341.829 169.37 341.004C166.493 340.589 167.305 343.233 168.378 344.292C170.033 345.925 174.124 345.616 176.209 345.519C187.608 344.989 196.736 341.476 207.171 337.636C212.284 335.754 216.627 333.461 222.066 333.304C230.675 333.056 239.302 333.088 247.914 332.98C264.788 332.768 281.661 332.557 298.535 332.345C306.586 332.244 315.061 332.029 321.979 327.911C328.897 323.793 333.328 314.329 329.194 307.42C326.804 303.426 322.149 301.222 317.529 300.655C312.909 300.089 308.245 300.93 303.666 301.769C285.383 305.118 267.1 308.466 248.816 311.815C239.717 313.482 230.382 314.691 221.387 316.838C220.219 317.118 219.142 317.377 218.122 317.609Z" fill="#DD96A9"/>
<path d="M200.814 340.413C199.628 340.875 185.264 343.887 188.312 332.624C191.36 321.361 203.177 316.662 202.085 316.901C200.993 317.139 197.281 315.206 188.311 319.225C176.782 324.392 162.744 326.486 157.842 339.755C157.05 341.899 157.173 344.54 158.746 346.199C160.731 348.293 164.063 348.091 166.926 347.734C178.85 346.245 189.884 345.587 200.814 340.413Z" fill="#254672"/>
<path d="M215.263 314.385C214.207 314.517 213.152 314.649 212.096 314.781C212.905 322.361 213.713 329.942 214.522 337.522C218.506 337.462 222.489 337.402 226.472 337.342C228.534 337.311 232.083 339.788 234.337 340.267C237.428 340.923 240.632 341.074 243.772 340.731C249.387 340.118 253.482 337.41 259.054 337.838C266.61 338.418 274.124 339.944 281.687 340.618C299.043 342.164 323.055 344.224 337.668 332.576C358.143 316.256 338.613 291.542 325.774 290.443C314.277 289.459 300.991 293.01 290.455 297.002C276.409 302.324 258.061 301.17 243.113 302.505C238.906 302.881 234.625 303.274 230.715 304.872C226.805 306.47 223.249 309.485 222.058 313.537C219.793 313.819 217.528 314.102 215.263 314.385Z" fill="#395884"/>
<path d="M200.355 319.157C202.316 316.751 205.472 314.647 208.362 315.777C211.223 316.895 212.131 320.505 212.094 323.576C212.028 329.095 208.119 344.788 199.803 341.772C191.398 338.725 196.552 323.824 200.355 319.157Z" fill="#254672"/>
<path d="M210.373 319.069C215.25 320.175 218.825 320.632 224.743 319.397C231.029 318.05 238.393 322.521 243.549 325.543C249.508 329.036 257.57 332.082 261.476 338.146C263.049 340.587 263.505 343.991 261.783 346.33C260.157 348.539 257.153 349.188 254.413 349.311C248.298 349.587 243.714 347.524 238.196 345.568C232.517 343.554 226.978 341.178 221.326 339.098C216.213 337.216 211.87 334.922 206.431 334.766C197.822 334.518 189.195 334.55 180.583 334.442C163.709 334.23 146.836 334.019 129.962 333.807C121.911 333.706 113.436 333.491 106.518 329.373C99.6003 325.255 95.1693 315.791 99.3033 308.882C101.693 304.888 106.348 302.683 110.968 302.117C115.588 301.551 120.252 302.392 124.831 303.231C143.114 306.58 161.397 309.928 179.681 313.277C188.78 314.944 198.115 316.153 207.11 318.3C208.276 318.577 209.353 318.837 210.373 319.069Z" fill="#E9ACB8"/>
<path d="M202.797 313.912C204.946 315.13 207.226 316.319 207.829 316.074C203.204 317.951 199.476 321.919 197.891 326.652C196.306 331.385 196.892 336.798 199.454 341.082C190.633 340.94 181.845 340.329 173.12 340.696C160.149 341.242 147.164 341.18 134.186 341.448C119.454 341.752 103.991 342.379 91.6925 332.576C71.2185 316.256 90.7485 291.542 103.587 290.443C115.537 289.421 128.837 293.586 140.392 296.068C149.433 298.009 157.672 300.661 166.99 302.045C174.426 303.15 180.849 304.401 187.937 307.097C191.6 308.49 195.218 310.003 198.783 311.632C199.378 311.903 201.044 312.917 202.797 313.912Z" fill="#395884"/>
<path d="M212.073 200.222L230.801 140.051L197.692 138.809L212.073 200.222Z" fill="white"/>
<path d="M212.191 238.225L208.577 264.378H216.656L212.191 238.225Z" fill="white"/>
<path d="M101.338 276.48C101.338 276.48 108.306 280.469 110.449 289.06C110.449 289.06 157.696 267.376 161.155 257.402C164.614 247.429 157.078 239.767 157.078 239.767H146.829L101.338 276.48Z" fill="#395884"/>
<path d="M197.692 138.809C197.692 138.809 198.052 153.476 213.876 153.476C229.7 153.476 231.276 138.527 231.276 138.527L197.692 138.809Z" fill="#E4ABB7"/>
<path d="M197.692 138.809L184.36 151.094L212.073 200.222L197.692 138.809Z" fill="#254672"/>
<path d="M231.582 138.809L245.684 149.78L212.181 199.878L231.582 138.809Z" fill="#254672"/>
<path d="M212.074 211.282C213.609 211.282 214.854 210.038 214.854 208.502C214.854 206.967 213.609 205.722 212.074 205.722C210.539 205.722 209.294 206.967 209.294 208.502C209.294 210.038 210.539 211.282 212.074 211.282Z" fill="#254672"/>
<path d="M212.074 233.156C213.609 233.156 214.854 231.911 214.854 230.376C214.854 228.841 213.609 227.596 212.074 227.596C210.539 227.596 209.294 228.841 209.294 230.376C209.294 231.911 210.539 233.156 212.074 233.156Z" fill="#254672"/>
<path d="M231.278 342.957C235.027 344.413 242.519 344.63 244.334 340.104C247.07 333.281 241.384 325.177 235.348 322.554C229.971 320.217 224.343 320.626 218.664 320.261C222.014 316.128 230.567 315.466 235.204 316.89C241.925 318.953 247.228 324.224 253.136 327.799C256.868 330.058 260.624 332.333 263.89 335.225C266.786 337.789 281.059 357.31 269.584 354.32C262.815 352.556 256.163 350.715 249.302 349.6C242.565 348.505 237.519 345.386 231.278 342.957Z" fill="#254672"/>
<path d="M207.775 264.413L204.554 284.373H220.681L217.195 264.413H207.775Z" fill="#254672"/>
<path d="M252.457 247.894L230.97 255.59L233.367 261.434L253.697 255.59L252.457 247.894Z" fill="#254672"/>
<path d="M172.106 246.266C172.159 246.055 194.038 252.75 194.038 252.75L191.544 260.237L169.817 254.665L172.106 246.266Z" fill="#254672"/>
<path d="M125.618 133.198L130.145 141.475L138.422 146.001L130.145 150.528L125.618 158.805L121.091 150.528L112.814 146.001L121.091 141.475L125.618 133.198Z" fill="#F7A53C"/>
<path d="M319.783 208.097L323.674 215.212L330.789 219.103L323.674 222.994L319.783 230.109L315.892 222.994L308.777 219.103L315.892 215.212L319.783 208.097Z" fill="#F7A53C"/>
<path d="M279.332 85.7471L282.102 90.8121L287.167 93.5821L282.102 96.3531L279.332 101.418L276.562 96.3531L271.496 93.5821L276.562 90.8121L279.332 85.7471Z" fill="#F7A53C"/>
<path d="M78.1446 346.795L80.9156 351.86L85.9806 354.63L80.9156 357.401L78.1446 362.466L75.3746 357.401L70.3096 354.63L75.3746 351.86L78.1446 346.795Z" fill="#F7A53C"/>
<path d="M335.004 353.092L337.774 358.157L342.839 360.927L337.774 363.697L335.004 368.762L332.234 363.697L327.169 360.927L332.234 358.157L335.004 353.092Z" fill="#F7A53C"/>
<path d="M65.0819 119.527L0 148.67L36.4818 230.14L101.564 200.997L65.0819 119.527Z" fill="#A3B1C7"/>
<path d="M90.1341 139.392L22.4424 161.818L50.5156 246.555L118.207 224.129L90.1341 139.392Z" fill="#B8C8E0"/>
<path d="M89.8253 171.557L61.0625 181.083L62.4701 185.333L91.2329 175.807L89.8253 171.557Z" fill="white"/>
<path d="M77.2745 161.058L48.5107 170.584L49.9186 174.835L78.6824 165.309L77.2745 161.058Z" fill="white"/>
<path d="M53.9698 183.431L41.8682 187.44L43.2765 191.691L55.3782 187.682L53.9698 183.431Z" fill="white"/>
<path d="M50.7388 194.468L44.8398 196.423L46.2479 200.673L52.1468 198.718L50.7388 194.468Z" fill="white"/>
<path d="M75.1861 186.368L56.9434 192.412L58.3517 196.663L76.5944 190.619L75.1861 186.368Z" fill="white"/>
<path d="M92.8208 180.526L83.2129 183.709L84.6209 187.959L94.2288 184.776L92.8208 180.526Z" fill="white"/>
<path d="M67.0341 199.033L47.8184 205.399L49.2264 209.649L68.4421 203.283L67.0341 199.033Z" fill="white"/>
<path d="M95.7759 189.513L73.2148 196.985L74.6227 201.236L97.1838 193.764L95.7759 189.513Z" fill="white"/>
<path d="M57.763 212.068L50.7695 214.384L52.1771 218.634L59.1706 216.318L57.763 212.068Z" fill="white"/>
<path d="M83.1193 203.67L62.6865 210.437L64.0941 214.687L84.5268 207.92L83.1193 203.67Z" fill="white"/>
<path d="M98.7491 198.493L88.959 201.735L90.3666 205.985L100.157 202.743L98.7491 198.493Z" fill="white"/>
<path d="M73.687 216.759L53.7412 223.365L55.1488 227.615L75.0945 221.009L73.687 216.759Z" fill="white"/>
<path d="M101.721 207.474L80.4375 214.523L81.8451 218.773L103.128 211.724L101.721 207.474Z" fill="white"/>
<path d="M347.681 65.2109L356.695 63.2329L419.137 77.7809L397.607 138.522L339.048 89.5659L347.681 65.2109Z" fill="#6A8F9B"/>
<path d="M419.911 90.8222L347.663 65.2114L314.945 157.51L387.193 183.121L419.911 90.8222Z" fill="#81ADC0"/>
<path d="M413.689 126.776L401.627 127.179L411.883 98.2458L420.342 108.005L413.689 126.776Z" fill="#81ADC0"/>
<path d="M398.2 98.5163L358.528 84.4534L349.548 109.786L389.22 123.849L398.2 98.5163Z" fill="white"/>
<path d="M393.124 215.265L379.43 196.767C378.343 195.299 376.271 194.989 374.803 196.077L338.511 222.944C337.043 224.031 336.733 226.103 337.821 227.571L351.515 246.069C352.602 247.537 354.674 247.847 356.142 246.759L392.434 219.892C393.902 218.805 394.211 216.733 393.124 215.265Z" fill="#254672"/>
<path d="M338.887 224.666L376.339 196.94C376.736 196.646 377.296 196.73 377.59 197.127L392.243 216.92C392.537 217.317 392.453 217.877 392.056 218.171L354.604 245.897C354.207 246.191 353.647 246.107 353.353 245.71L338.7 225.917C338.406 225.52 338.49 224.959 338.887 224.666Z" fill="#B8C8E0"/>
<path d="M377.345 223.184C374.958 224.951 371.952 225.282 369.364 224.325C367.857 223.783 366.498 222.8 365.471 221.413C364.452 220.036 363.901 218.439 363.822 216.84C363.669 214.096 364.864 211.317 367.25 209.55C371.013 206.764 376.32 207.556 379.106 211.319C381.9 215.091 381.108 220.398 377.345 223.184Z" fill="white"/>
<path d="M351.173 230.712C349.52 231.936 347.188 231.588 345.965 229.935C344.741 228.282 345.089 225.95 346.742 224.727C348.395 223.503 350.727 223.851 351.95 225.504C353.174 227.156 352.826 229.488 351.173 230.712Z" fill="white"/>
<path d="M357.053 238.655C355.4 239.879 353.068 239.531 351.845 237.878C350.621 236.225 350.969 233.893 352.622 232.67C354.275 231.447 356.607 231.794 357.83 233.447C359.054 235.1 358.706 237.432 357.053 238.655Z" fill="white"/>
<path d="M375.246 217.459C374.077 218.324 372.428 218.078 371.563 216.909C370.698 215.74 370.944 214.091 372.112 213.226C373.281 212.361 374.93 212.607 375.795 213.776C376.661 214.945 376.415 216.593 375.246 217.459Z" fill="#81ADC0"/>
<path d="M370.181 223.72L370.059 223.811C368.552 223.269 367.193 222.286 366.166 220.899C365.147 219.522 364.596 217.925 364.517 216.326L364.639 216.235C366.709 214.702 369.627 215.147 371.153 217.207C372.685 219.277 372.251 222.187 370.181 223.72Z" fill="#81ADC0"/>
<path d="M381.813 201.514C381.931 201.741 380.54 203.825 380.54 203.825L386.755 212.3L390.185 212.246C390.185 212.246 381.53 200.97 381.813 201.514Z" fill="#254672"/>
<path d="M382.216 226.718L386.616 223.493L387.263 224.612L382.978 227.805L382.216 226.718Z" fill="#254672"/>
<path d="M140.164 43.197L123.152 77.57C122.267 79.357 120.102 80.089 118.315 79.204L67.749 54.178C65.962 53.294 65.23 51.128 66.115 49.34L83.127 14.967C84.011 13.18 86.177 12.448 87.964 13.333L138.53 38.359C140.317 39.244 141.048 41.409 140.164 43.197Z" fill="#254672"/>
<path d="M72.9209 35.5879C74.6769 36.2759 129.242 65.2649 129.242 65.2649" stroke="white" stroke-miterlimit="10"/>
<path d="M100.094 42.155L107.481 45.689" stroke="white" stroke-miterlimit="10"/>
<path d="M200.421 103.573C204.645 103.573 208.071 100.148 208.071 95.9229C208.071 91.698 204.645 88.2729 200.421 88.2729C196.196 88.2729 192.771 91.698 192.771 95.9229C192.771 100.148 196.196 103.573 200.421 103.573Z" stroke="white" stroke-miterlimit="10"/>
<path d="M219.723 103.573C223.948 103.573 227.373 100.148 227.373 95.9229C227.373 91.698 223.948 88.2729 219.723 88.2729C215.498 88.2729 212.073 91.698 212.073 95.9229C212.073 100.148 215.498 103.573 219.723 103.573Z" stroke="white" stroke-miterlimit="10"/>
<path d="M227.372 95.923L233.613 93.582" stroke="white" stroke-miterlimit="10" stroke-linecap="round" stroke-linejoin="round"/>
<path d="M208.069 95.9229H212.073" stroke="white" stroke-miterlimit="10"/>
</svg>
