<svg width="79" height="85" viewBox="0 0 79 85" fill="none" xmlns="http://www.w3.org/2000/svg">
<path d="M8.16066 84.8939H70.8401C73.3332 84.8939 75.2885 84.3408 76.7062 83.2345C78.1239 82.1283 78.8327 80.6091 78.8327 78.677C78.8327 75.6856 77.9214 72.5228 76.0988 69.1887C74.2759 65.8546 71.6583 62.7308 68.246 59.8172C64.834 56.9036 60.7052 54.5354 55.8596 52.7125C51.0143 50.8895 45.5535 49.9781 39.4771 49.9781C33.4319 49.9781 27.9866 50.8895 23.1411 52.7125C18.2957 54.5354 14.1591 56.9036 10.7314 59.8172C7.30374 62.7308 4.68625 65.8546 2.87894 69.1887C1.07163 72.5228 0.167969 75.6856 0.167969 78.677C0.167969 80.6091 0.876873 82.1283 2.29468 83.2345C3.71249 84.3408 5.66782 84.8939 8.16066 84.8939ZM39.5239 41.6116C42.858 41.6116 45.9429 40.7002 48.7783 38.8773C51.614 37.0544 53.8966 34.5849 55.626 31.4688C57.3555 28.3528 58.2202 24.8472 58.2202 20.9521C58.2202 17.1193 57.3555 13.6839 55.626 10.6457C53.8966 7.60759 51.614 5.21602 48.7783 3.47101C45.9429 1.72601 42.858 0.853516 39.5239 0.853516C36.1896 0.853516 33.1047 1.74159 30.2691 3.51775C27.4335 5.29391 25.151 7.70886 23.4216 10.7626C21.6922 13.8163 20.8275 17.244 20.8275 21.0456C20.8275 24.9095 21.6922 28.3917 23.4216 31.4922C25.151 34.5927 27.4335 37.0544 30.2691 38.8773C33.1047 40.7002 36.1896 41.6116 39.5239 41.6116Z" fill="#4E6384"/>
</svg>
