<svg width="90" height="62" viewBox="0 0 90 62" fill="none" xmlns="http://www.w3.org/2000/svg">
<path d="M0.000411987 30.9998C0.000411987 32.5536 0.432236 33.8112 1.87204 35.2911L25.3382 60.2979C26.4181 61.4078 27.6417 62 29.1534 62C32.1048 62 34.1921 59.7063 34.1921 56.6727C34.1921 55.1929 33.6165 53.6391 32.4648 52.6037L20.8757 41.4321L17.6307 38.2379C16.9764 37.5939 17.4631 36.4824 18.3801 36.5264L26.5625 36.9187L83.5003 36.9187C86.5236 36.9187 89.043 34.1812 89.043 30.9998C89.043 27.8185 86.5236 25.1549 83.5003 25.1549L26.5625 25.1549L18.3545 25.4923C17.4406 25.5298 16.9601 24.422 17.612 23.7804L20.8757 20.5682L32.4648 9.39595C33.6165 8.28668 34.1921 6.7327 34.1921 5.25296C34.1921 2.21955 32.1048 0 29.1534 0C27.6417 0 26.4181 0.591885 25.3382 1.70166L1.87204 26.7086C0.432236 28.1885 0.000411987 29.52 0.000411987 30.9998Z" fill="#4E6384"/>
</svg>
