<svg width="142" height="142" viewBox="0 0 142 142" fill="none" xmlns="http://www.w3.org/2000/svg">
<mask id="mask0_2_416" style="mask-type:alpha" maskUnits="userSpaceOnUse" x="0" y="0" width="142" height="142">
<rect width="142" height="142" rx="71" fill="#E8EFF9"/>
</mask>
<g mask="url(#mask0_2_416)">
<path d="M109.063 60.3971C107.54 50.2735 107.01 38.2959 98.3028 31.8955C84.8088 21.9798 64.7805 29.2375 50.0231 31.7684C36.8327 34.0299 35.3902 49.0087 33.9094 59.9472C32.9099 67.3334 33.2558 75.994 31.0025 83.1053C28.7109 90.3411 23.6505 96.0469 21.8566 103.686C18.1812 119.338 22.0275 136.827 31.9363 149.485C43.0826 163.726 60.3818 171.935 78.0625 174.334C87.687 175.638 95.9223 176.034 105.543 178.04C115.96 180.213 126.818 180.605 137.24 178.234C152.712 174.715 167.084 164.583 173.443 150.045C179.801 135.507 97.0264 204.376 84.886 194.159C75.4803 186.244 130.656 150.431 122.253 111.077C119 95.8432 112.264 77.1986 109.65 63.8509C109.431 62.7324 109.241 61.5784 109.063 60.3971Z" fill="#0E3776"/>
<path d="M83.3638 143.629L80.5061 147.239C74.572 154.786 64.5223 154.199 59.1898 146.022L55.3203 140.061C56.004 131.023 56.8243 122.162 57.3849 116.351C57.7815 112.222 58.0549 109.638 58.0549 109.638L69.3352 110.964L79.2619 109.638C79.2619 109.638 80.7112 118.854 81.9828 129.696C82.5161 134.236 83.022 139.076 83.3638 143.629Z" fill="#E4ABB7"/>
<path d="M81.9827 129.696C75.7888 129.819 69.5265 127.905 64.5495 124.213C61.6781 122.094 59.258 119.387 57.3848 116.351C57.7813 112.222 58.0548 109.638 58.0548 109.638L69.3351 110.964L79.2617 109.638C79.2617 109.638 80.7111 118.854 81.9827 129.696Z" fill="#DD96A9"/>
<path d="M100.781 76.4653C98.5782 76.0305 96.5505 76.6293 94.9849 77.8107V47.2281L57.9227 37.2385L36.5667 41.67L40.5578 66.5509C43.1284 82.3761 39.7292 102.165 55.4929 112.051C62.5045 116.448 75.2766 118.481 82.4891 113.153C88.7063 108.561 91.8511 98.591 94.9836 91.7518C94.9836 91.7518 95.525 90.9847 97.1699 90.9847C101.641 90.9847 105.186 87.4256 104.332 82.8C103.801 79.9232 103.648 77.03 100.781 76.4653Z" fill="#E4ABB7"/>
<path d="M95.2757 72.9462C98.8813 73.3905 102.291 73.1526 104.813 71.7662C111.781 67.9364 110.994 55.4337 109.199 48.6313C107.082 40.6175 101.214 32.6584 93.4805 29.1895C52.963 10.4902 23.8721 47.8301 30.1043 57.1811C36.2299 66.3721 57.1606 43.6762 61.0575 39.0301C68.0307 48.4809 66.6634 59.2621 78.1228 66.7659C81.8953 69.2366 88.8918 72.1586 95.2757 72.9462Z" fill="#0E3776"/>
<path d="M93.7745 63.7043C99.1973 67.6613 104.11 70.9565 105.926 72.894C106.905 63.3051 111.643 48.3617 104.814 39.8981C102.048 36.4703 98.6408 34.4234 94.733 32.6199C85.8127 28.503 75.0369 23.4986 64.9065 24.1959C45.622 25.5263 38.8155 45.2347 37.8447 61.4086C53.1723 62.0485 68.4602 52.8 75.0109 38.9273C71.4792 46.4106 83.5361 56.2347 93.7745 63.7043Z" fill="#0E3776"/>
</g>
</svg>
