<svg width="85" height="68" viewBox="0 0 85 68" fill="none" xmlns="http://www.w3.org/2000/svg">
<path d="M20.7103 0.870117C18.0342 0.870117 15.3885 1.27153 12.7733 2.07435C10.158 2.87716 7.78 4.03274 5.63916 5.54106C3.49831 7.04939 1.80753 8.88615 0.566809 11.0513C0.347857 11.4162 0.220136 11.7629 0.183644 12.0913C0.147152 12.4198 0.128906 12.9246 0.128906 13.6057L0.128906 65.0956C0.128906 65.9471 0.384348 66.61 0.895233 67.0843C1.40612 67.5589 2.11162 67.7962 3.01175 67.7962C3.44966 67.7962 3.86931 67.7232 4.27073 67.5772C4.67213 67.4312 5.04313 67.2122 5.38372 66.9203C7.69485 64.9498 10.3101 63.4597 13.2295 62.45C16.1488 61.4403 19.1289 60.9355 22.1699 60.9355C24.0675 60.9355 25.9043 61.1484 27.6802 61.5741C29.4561 61.9998 31.1347 62.6081 32.716 63.3988C34.2974 64.1895 35.7327 65.1443 37.0221 66.2634C37.4113 66.6039 37.837 66.7742 38.2991 66.7742C38.7129 66.7742 39.0597 66.6343 39.3394 66.3545C39.6192 66.0748 39.7591 65.7038 39.7591 65.2417V11.2703C39.7591 10.7837 39.7165 10.431 39.6313 10.212C39.5461 9.99306 39.3332 9.62814 38.9927 9.11725C37.1924 6.53852 34.6562 4.51931 31.3841 3.05962C28.112 1.59995 24.5541 0.870117 20.7103 0.870117ZM63.588 0.870117C59.7444 0.870117 56.1865 1.59995 52.9143 3.05962C49.6422 4.51931 47.1059 6.53852 45.3055 9.11725C44.965 9.62814 44.7521 9.99306 44.6669 10.212C44.582 10.431 44.5395 10.7837 44.5395 11.2703V65.2417C44.5395 65.7038 44.6794 66.0748 44.9591 66.3545C45.2389 66.6343 45.5855 66.7742 45.9991 66.7742C46.4612 66.7742 46.8869 66.6039 47.2763 66.2634C48.5657 65.1443 50.001 64.1895 51.5822 63.3988C53.1636 62.6081 54.8422 61.9998 56.6182 61.5741C58.3942 61.1484 60.2309 60.9355 62.1284 60.9355C65.1694 60.9355 68.1496 61.4403 71.069 62.45C73.9881 63.4597 76.6034 64.9498 78.9147 66.9203C79.2552 67.2122 79.6262 67.4312 80.0275 67.5772C80.4291 67.7232 80.8488 67.7962 81.2868 67.7962C82.1868 67.7962 82.8923 67.5589 83.4033 67.0843C83.914 66.61 84.1693 65.9471 84.1693 65.0956V13.6057C84.1693 12.9246 84.1511 12.4137 84.1147 12.0731C84.0781 11.7325 83.9503 11.3919 83.7314 11.0513C82.4907 8.88615 80.8 7.04939 78.6591 5.54106C76.5182 4.03274 74.1401 2.87716 71.5249 2.07435C68.9096 1.27153 66.264 0.870117 63.588 0.870117Z" fill="#4E6384"/>
</svg>
