<svg width="32" height="32" viewBox="0 0 32 32" fill="none" xmlns="http://www.w3.org/2000/svg">
<path d="M4.7825 30.0127L16.1639 18.6312L26.9586 29.4259C27.8019 30.2693 29.1693 30.2693 30.0127 29.4259C30.856 28.5825 30.856 27.2152 30.0127 26.3718L19.218 15.5771L30.0127 4.78249C30.856 3.93912 30.856 2.57175 30.0127 1.72839C29.1693 0.885022 27.8019 0.88502 26.9586 1.72839L16.1639 12.523L4.7825 1.14164C3.93914 0.298272 2.57177 0.298273 1.7284 1.14164C0.885037 1.985 0.885037 3.35237 1.7284 4.19574L13.1098 15.5771L1.7284 26.9586C0.885037 27.8019 0.885037 29.1693 1.7284 30.0127C2.57177 30.856 3.93914 30.856 4.7825 30.0127Z" fill="#4D6384" stroke="#E8EFF9"/>
</svg>
