<svg width="97" height="85" viewBox="0 0 97 85" fill="none" xmlns="http://www.w3.org/2000/svg">
<path d="M0.382812 39.993C0.382812 42.0343 1.95348 43.8009 4.46654 43.8009C5.68381 43.8009 6.78327 43.1336 7.76494 42.3484L46.7174 9.64694C47.8169 8.70476 49.0734 8.70476 50.1729 9.64694L89.0861 42.3484C90.0285 43.1336 91.128 43.8009 92.3453 43.8009C94.662 43.8009 96.429 42.3484 96.429 40.0715C96.429 38.7367 95.9185 37.6768 94.8976 36.8131L83.8637 27.5483V11.2172C83.8637 9.45065 82.7249 8.35144 80.9579 8.35144H75.5391C73.8114 8.35144 72.6334 9.45065 72.6334 11.2172V18.0873L54.021 2.46282C50.6048 -0.402972 46.2855 -0.402972 42.8693 2.46282L1.95348 36.8131C0.893279 37.6768 0.382812 38.8545 0.382812 39.993ZM13.1445 75.2854C13.1445 80.9385 16.6785 84.3539 22.5292 84.3539H74.3219C80.1333 84.3539 83.7066 80.9385 83.7066 75.2854V45.4497L50.8404 17.9303C49.309 16.5955 47.4635 16.6348 45.9714 17.9303L13.1445 45.4497V75.2854ZM58.733 76.9735H38.118V51.8487C38.118 50.0036 39.3353 48.8259 41.1808 48.8259H55.7095C57.555 48.8259 58.733 50.0036 58.733 51.8487V76.9735Z" fill="white"/>
</svg>
