<svg width="58" height="53" viewBox="0 0 58 53" fill="none" xmlns="http://www.w3.org/2000/svg">
<path d="M10.6669 52.8734C11.4121 52.8734 12.3892 52.6902 13.5981 52.3237C14.807 51.957 16.1111 51.4654 17.5104 50.8489C18.9098 50.2325 20.2926 49.5535 21.6588 48.8119C23.025 48.0704 24.2381 47.3164 25.2979 46.5499C25.5132 46.3999 25.7119 46.2917 25.8941 46.2251C26.0763 46.1584 26.2501 46.125 26.4158 46.125C26.5813 46.1418 26.7468 46.1543 26.9125 46.1627C27.0782 46.1709 27.2356 46.175 27.3846 46.175C30.9615 46.175 34.2819 45.7917 37.3456 45.0253C40.4092 44.2588 43.1623 43.1758 45.6049 41.7761C48.0476 40.3765 50.1301 38.731 51.8524 36.8398C53.5746 34.9486 54.8911 32.8699 55.8019 30.6038C56.7127 28.3376 57.1681 25.9631 57.1681 23.4804C57.1681 20.3311 56.4436 17.3818 54.9945 14.6325C53.5457 11.8831 51.5336 9.47118 48.9584 7.39667C46.3832 5.32216 43.3899 3.69755 39.9786 2.52283C36.5672 1.3481 32.9073 0.760742 28.9991 0.760742C25.0909 0.760742 21.4311 1.3481 18.0197 2.52283C14.6082 3.69755 11.615 5.32216 9.03985 7.39667C6.46471 9.47118 4.45264 11.8831 3.00362 14.6325C1.55459 17.3818 0.830078 20.3311 0.830078 23.4804C0.830078 26.1465 1.34759 28.6793 2.38261 31.0786C3.41762 33.4781 4.89977 35.6734 6.82905 37.6644C8.75831 39.6557 11.0478 41.3678 13.6974 42.8009C13.8796 42.9009 13.9997 43.0383 14.0576 43.2132C14.1156 43.3883 14.0949 43.5674 13.9955 43.7507C13.5318 44.5172 12.9853 45.3086 12.356 46.125C11.7268 46.9415 11.1182 47.6955 10.5303 48.387C9.94239 49.0786 9.49112 49.6326 9.17647 50.0491C8.69622 50.6823 8.58444 51.3113 8.84111 51.9362C9.0978 52.561 9.7064 52.8734 10.6669 52.8734Z" fill="#4E6384"/>
</svg>
