<svg width="48" height="46" viewBox="0 0 48 46" fill="none" xmlns="http://www.w3.org/2000/svg">
<path d="M7.56246 46H40.4616C45.4951 46 48 43.4013 48 38.254V7.74577C48 2.59859 45.4951 0 40.4616 0H7.56246C2.52885 0 0 2.5736 0 7.74577V38.254C0 43.4263 2.52885 46 7.56246 46ZM7.2012 41.977C5.0577 41.977 3.87757 40.8028 3.87757 38.479V14.9169C3.87757 12.6181 5.0577 11.4188 7.2012 11.4188H40.7746C42.9181 11.4188 44.1225 12.6181 44.1225 14.9169V38.479C44.1225 40.8028 42.9181 41.977 40.7746 41.977H7.2012Z" fill="#4E6384"/>
<path d="M11.5013 21.0538H36.5227C37.3566 21.0538 38 20.3586 38 19.4896C38 18.6455 37.3566 18 36.5227 18H11.5013C10.6196 18 10 18.6455 10 19.4896C10 20.3586 10.6196 21.0538 11.5013 21.0538ZM11.5013 28.5268H36.5227C37.3566 28.5268 38 27.8813 38 27.0372C38 26.1434 37.3566 25.473 36.5227 25.473H11.5013C10.6196 25.473 10 26.1434 10 27.0372C10 27.8813 10.6196 28.5268 11.5013 28.5268ZM11.5013 36H27.3958C28.2297 36 28.8731 35.3545 28.8731 34.5102C28.8731 33.6413 28.2297 32.9462 27.3958 32.9462H11.5013C10.6196 32.9462 10 33.6413 10 34.5102C10 35.3545 10.6196 36 11.5013 36Z" fill="#4E6384"/>
</svg>
