<svg width="60" height="57" viewBox="0 0 60 57" fill="none" xmlns="http://www.w3.org/2000/svg">
<path d="M9.45308 56.3753H50.577C56.8689 56.3753 60 53.1905 60 46.8823V9.49284C60 3.1847 56.8689 0 50.577 0H9.45308C3.16106 0 0 3.15407 0 9.49284V46.8823C0 53.2211 3.16106 56.3753 9.45308 56.3753ZM9.0015 51.445C6.32213 51.445 4.84696 50.0059 4.84696 47.1579V18.2814C4.84696 15.4641 6.32213 13.9943 9.0015 13.9943H50.9682C53.6477 13.9943 55.1531 15.4641 55.1531 18.2814V47.1579C55.1531 50.0059 53.6477 51.445 50.9682 51.445H9.0015Z" fill="#E8EFF9"/>
<path d="M14.2397 25.3849H45.8504C46.9039 25.3849 47.7167 24.5275 47.7167 23.4557C47.7167 22.4146 46.9039 21.6184 45.8504 21.6184H14.2397C13.1258 21.6184 12.343 22.4146 12.343 23.4557C12.343 24.5275 13.1258 25.3849 14.2397 25.3849ZM14.2397 34.6021H45.8504C46.9039 34.6021 47.7167 33.8059 47.7167 32.7648C47.7167 31.6624 46.9039 30.8356 45.8504 30.8356H14.2397C13.1258 30.8356 12.343 31.6624 12.343 32.7648C12.343 33.8059 13.1258 34.6021 14.2397 34.6021ZM14.2397 43.8195H34.32C35.3735 43.8195 36.1863 43.0233 36.1863 41.9819C36.1863 40.9103 35.3735 40.053 34.32 40.053H14.2397C13.1258 40.053 12.343 40.9103 12.343 41.9819C12.343 43.0233 13.1258 43.8195 14.2397 43.8195Z" fill="#E8EFF9"/>
</svg>
