<svg width="49" height="46" viewBox="0 0 49 46" fill="none" xmlns="http://www.w3.org/2000/svg">
<path d="M0.492615 40.2054C4.22508 45.6615 12.4723 47.5258 17.7469 43.7974C22.3063 40.5691 23.312 35.5678 20.2948 31.2029C17.5904 27.2472 12.6958 26.1332 9.47736 28.4749C5.76725 31.1575 7.2647 34.8403 4.98499 36.4772C3.08524 37.8639 1.76657 37 0.671416 37.7502C-0.0437882 38.2049 -0.311989 39.0688 0.492615 40.2054ZM21.1441 27.8383C22.7757 29.4979 24.0049 31.703 24.2956 33.499C26.1059 33.2036 27.5586 32.3395 29.0785 30.7938C29.3243 30.5664 29.5478 30.3163 29.7714 30.0434C28.7878 24.5646 24.2956 20.0633 18.9985 19.0631C18.7303 19.2905 18.4844 19.5405 18.2386 19.7906C16.7188 21.3365 15.8918 22.8596 15.6013 24.6556C17.3446 24.951 19.535 26.1788 21.1441 27.8383ZM42.2203 0.807906C41.0803 1.64906 28.6537 10.3106 21.0323 17.1535C26.0836 18.7676 30.0395 22.7686 31.6486 27.9746C38.4207 20.2224 46.9137 7.60529 47.7407 6.42314C50.378 2.67207 45.774 -1.87468 42.2203 0.807906Z" fill="#4E6384"/>
</svg>
