<svg width="41" height="41" viewBox="0 0 41 41" fill="none" xmlns="http://www.w3.org/2000/svg">
<path d="M2.65957 23.0745H18.7553V38.3404C18.7553 39.5331 19.7222 40.5 20.9149 40.5C22.1076 40.5 23.0745 39.5331 23.0745 38.3404V23.0745H38.3404C39.5331 23.0745 40.5 22.1076 40.5 20.9149C40.5 19.7222 39.5331 18.7553 38.3404 18.7553H23.0745V2.65957C23.0745 1.46687 22.1076 0.5 20.9149 0.5C19.7222 0.5 18.7553 1.46687 18.7553 2.65957V18.7553H2.65957C1.46687 18.7553 0.5 19.7222 0.5 20.9149C0.5 22.1076 1.46687 23.0745 2.65957 23.0745Z" fill="#E8EFF9" stroke="#E8EFF9"/>
</svg>
