<svg width="48" height="48" viewBox="0 0 48 48" fill="none" xmlns="http://www.w3.org/2000/svg">
<path d="M21.9602 47.1691H26.0397C27.1926 47.1691 28.0351 46.4817 28.279 45.3509L29.4319 40.4733C30.2965 40.1851 31.139 39.8525 31.8706 39.4978L36.1499 42.114C37.1032 42.7126 38.1896 42.6239 38.9878 41.8258L41.8479 38.9879C42.6461 38.1897 42.7569 37.0367 42.1139 36.0834L39.4977 31.8486C39.8745 31.0727 40.2071 30.2745 40.451 29.4763L45.3731 28.3012C46.5037 28.0574 47.169 27.2149 47.169 26.0619V22.0489C47.169 20.9183 46.5037 20.0758 45.3731 19.8319L40.4953 18.6568C40.2071 17.7478 39.8524 16.9274 39.5419 16.2401L42.1583 11.9389C42.7791 10.9855 42.7125 9.89912 41.8921 9.10094L38.9878 6.24086C38.1674 5.48703 37.1919 5.35399 36.2163 5.90827L31.8706 8.591C31.1612 8.21409 30.341 7.88152 29.4319 7.5933L28.279 2.6491C28.0351 1.51836 27.1926 0.831055 26.0397 0.831055H21.9602C20.8073 0.831055 19.9648 1.51836 19.6987 2.6491L18.5458 7.54895C17.6811 7.83717 16.8386 8.16976 16.0848 8.56883L11.7835 5.90827C10.808 5.35399 9.8103 5.46486 8.98997 6.24086L6.1077 9.10094C5.28736 9.89912 5.19867 10.9855 5.84165 11.9389L8.43568 16.2401C8.14746 16.9274 7.79272 17.7478 7.50448 18.6568L2.62681 19.8319C1.49607 20.0758 0.830933 20.9183 0.830933 22.0489V26.0619C0.830933 27.2149 1.49607 28.0574 2.62681 28.3012L7.54883 29.4763C7.79272 30.2745 8.12529 31.0727 8.48003 31.8486L5.886 36.0834C5.22084 37.0367 5.35387 38.1897 6.15204 38.9879L8.98997 41.8258C9.78815 42.6239 10.8967 42.7126 11.8501 42.114L16.107 39.4978C16.8608 39.8525 17.6811 40.1851 18.5458 40.4733L19.6987 45.3509C19.9648 46.4817 20.8073 47.1691 21.9602 47.1691ZM23.9999 31.8265C19.6987 31.8265 16.1735 28.2791 16.1735 23.9779C16.1735 19.6988 19.6987 16.1736 23.9999 16.1736C28.3011 16.1736 31.8264 19.6988 31.8264 23.9779C31.8264 28.2791 28.3011 31.8265 23.9999 31.8265Z" fill="#4E6384"/>
</svg>
